<svg xmlns="http://www.w3.org/2000/svg" viewBox="0 0 64 64" aria-labelledby="title"
aria-describedby="desc" role="img" xmlns:xlink="http://www.w3.org/1999/xlink"
width="64" height="64">
  <title>Server</title>
  <desc>A solid styled icon from Orion Icon Library.</desc>
  <path data-name="layer1"
  d="M2 60a2 2 0 0 0 2 2h56a2 2 0 0 0 2-2V48H2zm32-8h20a2 2 0 0 1 0 4H34a2 2 0 0 1 0-4zm-23-1a3 3 0 1 1-3 3 3 3 0 0 1 3-3zM56.5 4A2.9 2.9 0 0 0 54 2H10a3 3 0 0 0-2.6 2l-3.7 8h56.6zM2 44h60V32H2zm32-8h20a2 2 0 0 1 0 4H34a2 2 0 0 1 0-4zm-23-1a3 3 0 1 1-3 3 3 3 0 0 1 3-3zM2 16v12h60V16zm9 9a3 3 0 1 1 3-3 3 3 0 0 1-3 3zm43-1H34a2 2 0 0 1 0-4h20a2 2 0 0 1 0 4z"
  fill="#202020"></path>
</svg>