<?xml version="1.0" encoding="UTF-8" standalone="no"?>
<!-- Created with Inkscape (http://www.inkscape.org/) -->

<svg
   width="200"
   height="200"
   viewBox="0 0 52.916665 52.916666"
   version="1.1"
   id="svg269"
   inkscape:version="1.2.2 (732a01da63, 2022-12-09, custom)"
   sodipodi:docname="do-server-warn-symbolic.svg"
   xmlns:inkscape="http://www.inkscape.org/namespaces/inkscape"
   xmlns:sodipodi="http://sodipodi.sourceforge.net/DTD/sodipodi-0.dtd"
   xmlns="http://www.w3.org/2000/svg"
   xmlns:svg="http://www.w3.org/2000/svg">
  <sodipodi:namedview
     id="namedview271"
     pagecolor="#ffffff"
     bordercolor="#000000"
     borderopacity="0.25"
     inkscape:showpageshadow="2"
     inkscape:pageopacity="0.0"
     inkscape:pagecheckerboard="0"
     inkscape:deskcolor="#d1d1d1"
     inkscape:document-units="mm"
     showgrid="false"
     inkscape:zoom="1.8075"
     inkscape:cx="143.84509"
     inkscape:cy="79.66805"
     inkscape:window-width="1920"
     inkscape:window-height="1011"
     inkscape:window-x="0"
     inkscape:window-y="37"
     inkscape:window-maximized="1"
     inkscape:current-layer="layer1" />
  <defs
     id="defs266" />
  <g
     inkscape:label="Layer 1"
     inkscape:groupmode="layer"
     id="layer1">
    <path
       id="rect442"
       style="stroke-width:3.81393;stroke-linecap:round;stroke-miterlimit:6.7;paint-order:markers fill stroke"
       d="m 9.5352143,3.2966851 c -0.9117824,0 -1.6456115,0.6433453 -1.6456115,1.4420921 v 8.0528038 c 0,0.798746 0.7338291,1.441728 1.6456115,1.441728 H 23.391764 c 0.671604,-1.430521 2.350289,-2.388091 4.169716,-2.388091 1.819427,0 3.498909,0.95757 4.170927,2.388091 h 12.490587 c 0.911783,0 1.645612,-0.642982 1.645612,-1.441728 V 4.7387772 c 0,-0.7987468 -0.733829,-1.4420921 -1.645612,-1.4420921 z M 34.76214,6.5478483 A 2.3511781,2.0596974 0 0 1 37.113533,8.6075124 2.3511781,2.0596974 0 0 1 34.76214,10.667177 2.3511781,2.0596974 0 0 1 32.411152,8.6075124 2.3511781,2.0596974 0 0 1 34.76214,6.5478483 Z m 6.494073,0 A 2.3511781,2.0596974 0 0 1 43.607606,8.6075124 2.3511781,2.0596974 0 0 1 41.256213,10.667177 2.3511781,2.0596974 0 0 1 38.905224,8.6075124 2.3511781,2.0596974 0 0 1 41.256213,6.5478483 Z M 11.861991,7.1334141 h 15.571973 c 0.687154,0 1.240463,0.4484997 1.240463,1.0056456 v 0.743778 c 0,0.5571452 -0.553309,1.0060106 -1.240463,1.0060106 H 11.861991 c -0.687156,0 -1.24006,-0.4488654 -1.24006,-1.0060106 v -0.743778 c 0,-0.5571459 0.552904,-1.0056456 1.24006,-1.0056456 z" />
    <path
       id="rect442-6"
       style="stroke-width:3.81393;stroke-linecap:round;stroke-miterlimit:6.7;paint-order:markers fill stroke"
       d="m 9.5352143,15.252411 c -0.911783,0 -1.6456115,0.642982 -1.6456115,1.441728 v 8.053168 c 0,0.798745 0.7338285,1.441728 1.6456115,1.441728 h 5.6635977 l 1.679107,-2.484837 1.256604,-1.859988 h -6.272532 c -0.687155,0 -1.24006,-0.448499 -1.24006,-1.005647 v -0.743777 c 0,-0.557147 0.552905,-1.005646 1.24006,-1.005646 h 8.134438 l 2.592301,-3.836729 z m 22.6556087,0 2.19482,3.279533 a 2.3511781,2.0596974 0 0 1 0.376497,-0.02874 2.3511781,2.0596974 0 0 1 2.351393,2.060028 2.3511781,2.0596974 0 0 1 -0.511278,1.280971 l 1.269922,1.897816 1.637541,2.447009 h 4.713276 c 0.911783,0 1.645612,-0.642983 1.645612,-1.441728 v -8.053167 c 0,-0.798746 -0.73383,-1.441728 -1.645612,-1.441728 z m 9.06539,3.250801 a 2.3511781,2.0596974 0 0 1 2.351393,2.060027 2.3511781,2.0596974 0 0 1 -2.351393,2.059664 2.3511781,2.0596974 0 0 1 -2.350989,-2.059664 2.3511781,2.0596974 0 0 1 2.350989,-2.060027 z" />
    <path
       id="rect442-6-7"
       style="stroke-width:3.81393;stroke-linecap:round;stroke-miterlimit:6.7;paint-order:markers fill stroke"
       d="m 9.5352143,27.251783 c -0.911783,0 -1.6456115,0.642983 -1.6456115,1.441727 v 8.053167 c 0,0.05461 0.00422,0.108132 0.010896,0.161122 l 2.7234512,-4.03022 c -6.32e-4,-0.01323 -0.002,-0.02627 -0.002,-0.03965 v -0.743778 c 0,-0.548968 0.537102,-0.991652 1.210198,-1.004554 l 2.593916,-3.837822 z m 30.7807637,0 2.548317,3.807996 c 0.330517,0.27159 0.564399,0.621067 0.673498,1.006372 l 2.330813,3.482844 V 28.69351 c 0,-0.798744 -0.73383,-1.441727 -1.645612,-1.441727 z"
       sodipodi:nodetypes="sssccssccsccccssc" />
    <g
       id="path295"
       inkscape:transform-center-x="0.017694376"
       inkscape:transform-center-y="-4.8759531"
       transform="matrix(1.2175016,0.01247202,-0.01181165,1.1530381,47.302356,17.553949)" />
    <g
       id="path295-3"
       inkscape:transform-center-x="0.017694376"
       inkscape:transform-center-y="-4.8759531"
       transform="matrix(1.2175016,0.01247202,-0.01181165,1.1530381,47.278477,17.552808)" />
    <g
       id="path295-3-7"
       inkscape:transform-center-x="0.016836234"
       inkscape:transform-center-y="-4.5323664"
       transform="matrix(1.1585746,0.01159317,-0.01123996,1.0717886,-6.0171499,17.901204)"
       style="fill:#000000;fill-opacity:1">
      <path
         id="path1004-6-5"
         style="color:#000000;fill:#000000;fill-opacity:1;stroke-width:5.64436;stroke-linecap:round;stroke-linejoin:round;stroke-miterlimit:6.7;-inkscape-stroke:none;paint-order:markers fill stroke"
         d="M 28.718198,-0.41825095 A 2.8224623,2.8224623 89.776193 0 0 26.286578,1.0137487 L 19.02655,13.820608 11.768923,26.628923 a 2.8224623,2.8224623 89.776193 0 0 2.476361,4.213027 L 28.9683,30.72468 43.688929,30.607435 A 2.8224623,2.8224623 89.776193 0 0 46.0989,26.353408 L 38.636394,13.664308 31.173406,0.97471929 a 2.8224623,2.8224623 89.776193 0 0 -2.455208,-1.39297024 z m 0.122196,3.88632615 c 1.023683,-0.011073 1.825844,0.5598032 2.216457,0.9920197 0.390612,0.4322165 0.54632,0.7909966 0.66709,1.1050932 0.241539,0.6281941 0.29982,1.1355928 0.305197,1.6898581 l 0.09542,9.8353938 c 0.0054,0.554266 -0.04303,1.064299 -0.272333,1.697587 -0.114651,0.316642 -0.263379,0.677236 -0.645525,1.117809 -0.382144,0.440576 -1.173067,1.028189 -2.19675,1.039262 -1.023683,0.01107 -1.823453,-0.559335 -2.214066,-0.991552 -0.390611,-0.432214 -0.548694,-0.789489 -0.669462,-1.103585 -0.241539,-0.628195 -0.299834,-1.137074 -0.305211,-1.69134 L 25.72579,7.3232273 C 25.72039,6.7689622 25.76884,6.2604092 25.998138,5.6271221 26.112788,5.3104791 26.26389,4.9483803 26.646035,4.5078052 27.028179,4.06723 27.816711,3.479148 28.840394,3.4680752 Z M 28.969277,22.11613 a 3.5009105,3.6646876 0.11142549 0 1 3.536138,3.62664 3.5009105,3.6646876 0.11142549 0 1 -3.465036,3.70237 3.5009105,3.6646876 0.11142549 0 1 -3.536616,-3.626635 3.5009105,3.6646876 0.11142549 0 1 3.465514,-3.702375 z" />
    </g>
    <g
       id="path295-3-7-3"
       inkscape:transform-center-x="0.017694376"
       inkscape:transform-center-y="-4.8759531"
       transform="matrix(1.2175016,0.01247202,-0.01181165,1.1530381,47.314091,17.351336)" />
  </g>
</svg>
