<?xml version="1.0" encoding="UTF-8" standalone="no"?>
<!-- Created with Inkscape (http://www.inkscape.org/) -->

<svg
   width="200"
   height="200"
   viewBox="0 0 52.916665 52.916666"
   version="1.1"
   id="svg269"
   inkscape:version="1.2.2 (732a01da63, 2022-12-09, custom)"
   sodipodi:docname="do-server-error-symbolic.svg"
   xmlns:inkscape="http://www.inkscape.org/namespaces/inkscape"
   xmlns:sodipodi="http://sodipodi.sourceforge.net/DTD/sodipodi-0.dtd"
   xmlns="http://www.w3.org/2000/svg"
   xmlns:svg="http://www.w3.org/2000/svg">
  <sodipodi:namedview
     id="namedview271"
     pagecolor="#ffffff"
     bordercolor="#000000"
     borderopacity="0.25"
     inkscape:showpageshadow="2"
     inkscape:pageopacity="0.0"
     inkscape:pagecheckerboard="0"
     inkscape:deskcolor="#d1d1d1"
     inkscape:document-units="mm"
     showgrid="false"
     inkscape:zoom="2.7603327"
     inkscape:cx="10.50598"
     inkscape:cy="107.23345"
     inkscape:window-width="1920"
     inkscape:window-height="1011"
     inkscape:window-x="0"
     inkscape:window-y="37"
     inkscape:window-maximized="1"
     inkscape:current-layer="layer1" />
  <defs
     id="defs266" />
  <g
     inkscape:label="Layer 1"
     inkscape:groupmode="layer"
     id="layer1">
    <path
       id="rect442"
       style="stroke-width:4.01588;stroke-linecap:round;stroke-miterlimit:6.7;paint-order:markers fill stroke"
       d="m 7.1638426,0.42995275 c -1.014332,0 -1.8309294,0.64086385 -1.8309294,1.43690935 v 8.0256812 c 0,0.7960477 0.8165974,1.4369107 1.8309294,1.4369107 H 45.752824 c 1.014332,0 1.830929,-0.640863 1.830929,-1.4369107 V 1.8668621 c 0,-0.7960455 -0.816597,-1.43690935 -1.830929,-1.43690935 z M 35.228045,3.669814 a 2.6156134,2.0527274 0 0 1 2.615614,2.0527275 2.6156134,2.0527274 0 0 1 -2.615614,2.052727 2.6156134,2.0527274 0 0 1 -2.615613,-2.052727 2.6156134,2.0527274 0 0 1 2.615613,-2.0527275 z m 7.224611,0 a 2.6156134,2.0527274 0 0 1 2.615613,2.0527275 2.6156134,2.0527274 0 0 1 -2.615613,2.052727 2.6156134,2.0527274 0 0 1 -2.615613,-2.052727 2.6156134,2.0527274 0 0 1 2.615613,-2.0527275 z M 9.75238,4.2535586 h 17.323331 c 0.76444,0 1.379837,0.4470465 1.379837,1.0023081 V 5.997174 c 0,0.5552614 -0.615397,1.0023081 -1.379837,1.0023081 H 9.75238 c -0.7644414,0 -1.3798376,-0.4470467 -1.3798376,-1.0023081 V 5.2558667 c 0,-0.5552616 0.6153962,-1.0023081 1.3798376,-1.0023081 z" />
    <path
       id="rect442-6"
       style="stroke-width:4.01588;stroke-linecap:round;stroke-miterlimit:6.7;paint-order:markers fill stroke"
       d="m 7.1637029,12.345108 c -1.0143315,0 -1.8309176,0.641005 -1.8309176,1.437049 v 8.025415 c 0,0.796044 0.8165861,1.437047 1.8309176,1.437047 h 4.6898941 a 18.262391,14.442878 0 0 1 6.614875,-4.32996 H 9.7521079 c -0.7644395,0 -1.3794127,-0.446823 -1.3794127,-1.002082 v -0.741716 c 0,-0.555264 0.6149732,-1.002085 1.3794127,-1.002085 H 27.075832 c 0.76444,0 1.379967,0.446821 1.379967,1.002085 v 0.373263 a 18.262391,14.442878 0 0 1 4.319727,0.805168 2.6156134,2.0527274 0 0 1 -0.163229,-0.711523 2.6156134,2.0527274 0 0 1 2.615518,-2.052738 2.6156134,2.0527274 0 0 1 2.616071,2.052738 2.6156134,2.0527274 0 0 1 -1.827045,1.956469 18.262391,14.442878 0 0 1 5.061168,3.650381 h 4.674955 c 1.01433,0 1.830917,-0.641003 1.830917,-1.437047 v -8.025415 c 0,-0.796044 -0.816588,-1.437049 -1.830917,-1.437049 z m 35.2887401,3.239923 a 2.6156134,2.0527274 0 0 1 2.616071,2.052738 2.6156134,2.0527274 0 0 1 -2.616071,2.05274 2.6156134,2.0527274 0 0 1 -2.615518,-2.05274 2.6156134,2.0527274 0 0 1 2.615518,-2.052738 z" />
    <path
       id="rect442-6-7"
       style="stroke-width:4.01588;stroke-linecap:round;stroke-miterlimit:6.7;paint-order:markers fill stroke"
       d="m 7.1634636,24.304087 c -1.0143306,0 -1.8304249,0.640717 -1.8304249,1.436761 v 8.025696 c 0,0.796046 0.8160943,1.437186 1.8304249,1.437186 h 0.4474595 a 18.865057,15.951914 0 0 1 -0.085684,-1.441846 18.865057,15.951914 0 0 1 0.8568373,-4.747965 c 4.35e-5,-2.77e-4 -4.39e-5,-5.7e-4 0,-8.48e-4 0.019028,-0.120246 0.067838,-0.233605 0.1397997,-0.33684 a 18.865057,15.951914 0 0 1 2.6857589,-4.36367 18.262391,14.442878 0 0 1 0.0065,-0.0085 z m 34.5480804,0 a 18.262391,14.442878 0 0 1 1.736223,2.645573 18.865057,15.951914 0 0 1 0.492556,0.964761 2.6156134,2.0527274 0 0 1 1.12842,1.682083 2.6156134,2.0527274 0 0 1 -0.232499,0.824941 18.865057,15.951914 0 0 1 0.418898,3.340439 18.865057,15.951914 0 0 1 -0.08569,1.441846 h 0.583752 c 1.014329,0 1.830424,-0.64114 1.830424,-1.437186 v -8.025696 c 0,-0.796044 -0.816096,-1.436761 -1.830424,-1.436761 z" />
    <path
       id="path6451-2-1"
       style="fill:#000000;fill-opacity:1;stroke:none;stroke-width:2.71609;stroke-linecap:round;stroke-linejoin:round;stroke-miterlimit:6.7;stroke-dasharray:none;stroke-opacity:1;paint-order:markers fill stroke"
       d="M 26.587008 19.752283 A 16.506004 16.506004 0 0 0 10.081038 36.258252 A 16.506004 16.506004 0 0 0 26.587008 52.764221 A 16.506004 16.506004 0 0 0 43.092977 36.258252 A 16.506004 16.506004 0 0 0 26.587008 19.752283 z M 33.803621 25.884208 A 3.0668149 3.0668149 0 0 1 35.972998 26.779244 A 3.0668149 3.0668149 0 0 1 35.980233 31.11748 L 30.795536 36.31768 L 35.996769 41.502893 A 3.0668149 3.0668149 0 0 1 36.003487 45.840613 A 3.0668149 3.0668149 0 0 1 31.665767 45.847847 L 26.464535 40.661601 L 21.278805 45.862834 A 3.0668149 3.0668149 0 0 1 16.942118 45.868518 A 3.0668149 3.0668149 0 0 1 16.9354 41.533382 L 22.120614 36.331116 L 16.918864 31.144869 A 3.0668149 3.0668149 0 0 1 16.91318 26.808183 A 3.0668149 3.0668149 0 0 1 21.250899 26.801465 L 26.451615 31.986678 L 31.636829 26.784928 A 3.0668149 3.0668149 0 0 1 33.803621 25.884208 z " />
    <g
       id="path7508">
      <path
         style="color:#000000;fill:#000000;stroke-width:6.13363;stroke-linecap:round;stroke-linejoin:round;stroke-miterlimit:6.7;-inkscape-stroke:none;paint-order:markers fill stroke"
         d="m -38.301414,20.550665 0.03137,20.822953"
         id="path7602" />
    </g>
    <g
       id="path7508-2"
       transform="rotate(45,-12.386736,111.79556)">
      <path
         style="color:#000000;fill:#000000;stroke-width:6.13363;stroke-linecap:round;stroke-linejoin:round;stroke-miterlimit:6.7;-inkscape-stroke:none;paint-order:markers fill stroke"
         d="m -27.874253,30.946457 -20.822953,0.03137"
         id="path7608" />
    </g>
  </g>
</svg>
