<?xml version="1.0" encoding="UTF-8" standalone="no"?>
<!-- Created with Inkscape (http://www.inkscape.org/) -->

<svg
   width="200"
   height="200"
   viewBox="0 0 52.916665 52.916666"
   version="1.1"
   id="svg269"
   inkscape:version="1.2.2 (732a01da63, 2022-12-09, custom)"
   sodipodi:docname="do-server-error-symbolic.svg"
   xmlns:inkscape="http://www.inkscape.org/namespaces/inkscape"
   xmlns:sodipodi="http://sodipodi.sourceforge.net/DTD/sodipodi-0.dtd"
   xmlns="http://www.w3.org/2000/svg"
   xmlns:svg="http://www.w3.org/2000/svg">
  <sodipodi:namedview
     id="namedview271"
     pagecolor="#ffffff"
     bordercolor="#000000"
     borderopacity="0.25"
     inkscape:showpageshadow="2"
     inkscape:pageopacity="0.0"
     inkscape:pagecheckerboard="0"
     inkscape:deskcolor="#d1d1d1"
     inkscape:document-units="mm"
     showgrid="false"
     inkscape:zoom="0.13228492"
     inkscape:cx="223.0035"
     inkscape:cy="136.06993"
     inkscape:window-width="1920"
     inkscape:window-height="1011"
     inkscape:window-x="0"
     inkscape:window-y="37"
     inkscape:window-maximized="1"
     inkscape:current-layer="layer1" />
  <defs
     id="defs266" />
  <g
     inkscape:label="Layer 1"
     inkscape:groupmode="layer"
     id="layer1">
    <path
       id="rect442"
       style="stroke-width:5.14459;stroke-linecap:round;stroke-miterlimit:6.7;paint-order:markers fill stroke"
       d="m 4.3610058,2.0848628 c -1.167628,0 -2.1076378,0.9136516 -2.1076378,2.0485388 V 15.575267 c 0,1.134887 0.9400098,2.048539 2.1076378,2.048539 H 48.781944 c 1.167628,0 2.107638,-0.913652 2.107638,-2.048539 V 4.1334016 c 0,-1.1348872 -0.94001,-2.0485388 -2.107638,-2.0485388 z M 36.666554,6.7037916 a 3.0109112,2.9264838 0 0 1 3.010912,2.926484 3.0109112,2.9264838 0 0 1 -3.010912,2.9264834 3.0109112,2.9264838 0 0 1 -3.010911,-2.9264834 3.0109112,2.9264838 0 0 1 3.010911,-2.926484 z m 8.316467,0 a 3.0109112,2.9264838 0 0 1 3.010911,2.926484 3.0109112,2.9264838 0 0 1 -3.010911,2.9264834 3.0109112,2.9264838 0 0 1 -3.010911,-2.9264834 3.0109112,2.9264838 0 0 1 3.010911,-2.926484 z M 7.3407494,7.5360106 H 27.282157 c 0.87997,0 1.588372,0.6373348 1.588372,1.4289471 v 1.0568493 c 0,0.791612 -0.708402,1.428947 -1.588372,1.428947 H 7.3407494 c -0.8799715,0 -1.5883733,-0.637335 -1.5883733,-1.428947 V 8.9649577 c 0,-0.7916123 0.7084018,-1.4289471 1.5883733,-1.4289471 z" />
    <path
       id="rect442-3"
       style="stroke-width:5.1446;stroke-linecap:round;stroke-miterlimit:6.7;paint-order:markers fill stroke"
       d="m 4.2478027,19.118213 c -1.1676262,0 -2.1073649,0.913563 -2.1073649,2.048454 v 11.441679 c 0,1.13489 0.9397387,2.048453 2.1073649,2.048453 H 18.347717 c 0.17498,-2.131441 0.707632,-4.2182 1.575615,-6.17275 H 7.2274658 c -0.8799695,0 -1.5880167,-0.637239 -1.5880167,-1.428853 v -1.0573 c 0,-0.791615 0.7080472,-1.428853 1.5880167,-1.428853 H 22.246704 c 1.769534,-2.298885 4.040763,-4.163237 6.640422,-5.45083 z m 44.4210613,0 c -32.445909,-12.7454753 -16.222955,-6.372738 0,0 z"
       sodipodi:nodetypes="ssssccssssccscc" />
    <path
       id="rect442-6-7"
       style="stroke-width:5.14459;stroke-linecap:round;stroke-miterlimit:6.7;paint-order:markers fill stroke"
       d="m 4.3609741,36.120793 c -1.1676277,0 -2.1073649,0.913569 -2.1073649,2.048453 v 11.442196 c 0,1.134886 0.9397372,2.048454 2.1073649,2.048454 H 26.66969 C 24.335801,50.051448 22.390272,47.942438 20.974947,45.486629 H 7.3406372 c -0.8799701,0 -1.5880168,-0.637242 -1.5880168,-1.428853 v -1.056783 c 0,-0.791612 0.7080467,-1.428854 1.5880168,-1.428854 H 19.273242 C 18.732272,39.8051 18.45131,37.968745 18.439185,36.120793 Z"
       sodipodi:nodetypes="ssssccssssccs" />
    <g
       id="path295"
       inkscape:transform-center-x="0.017694376"
       inkscape:transform-center-y="-4.8759531"
       transform="matrix(1.2175016,0.01247202,-0.01181165,1.1530381,47.302356,17.553949)" />
    <path
       id="path381-6-7"
       style="fill:#000000;fill-opacity:1;stroke-width:4.31712;stroke-linecap:round;stroke-linejoin:round;stroke-miterlimit:6.7;paint-order:markers fill stroke"
       d="M 37.369812 20.616829 A 15.349 15.349003 0 0 0 22.020878 35.965763 A 15.349 15.349003 0 0 0 37.369812 51.315214 A 15.349 15.349003 0 0 0 52.718746 35.965763 A 15.349 15.349003 0 0 0 37.369812 20.616829 z M 30.057597 25.798425 A 2.7233235 2.7233235 0 0 1 32.175814 26.594759 L 37.520707 31.969108 L 42.895056 26.624215 A 2.7233235 2.7233235 0 0 1 46.747017 26.63455 A 2.7233235 2.7233235 0 0 1 46.736682 30.486511 L 41.362333 35.831921 L 46.707227 41.20627 A 2.7233235 2.7233235 0 0 1 46.696891 45.057715 A 2.7233235 2.7233235 0 0 1 42.84493 45.04738 L 37.500037 39.673031 L 32.125688 45.017924 A 2.7233235 2.7233235 0 0 1 28.275277 45.006555 A 2.7233235 2.7233235 0 0 1 28.284062 41.156144 L 33.658411 35.810734 L 28.313517 30.436385 A 2.7233235 2.7233235 0 0 1 28.323853 26.584424 A 2.7233235 2.7233235 0 0 1 30.057597 25.798425 z " />
    <g
       id="path1950">
      <path
         style="color:#000000;fill:#000000;stroke-width:5.10294;stroke-linecap:round;stroke-linejoin:round;stroke-miterlimit:6.7;-inkscape-stroke:none;paint-order:markers fill stroke"
         d="m 71.897604,23.493344 -0.05306,19.305671"
         id="path1981" />
    </g>
    <g
       id="path1950-5"
       transform="matrix(1.0673547,0,0,1.0673547,-39.200837,0.44252065)">
      <path
         style="color:#000000;fill:#000000;stroke-width:5.10294;stroke-linecap:round;stroke-linejoin:round;stroke-miterlimit:6.7;-inkscape-stroke:none;paint-order:markers fill stroke"
         d="M 81.52391,33.17271 62.218238,33.11965"
         id="path1987" />
    </g>
  </g>
</svg>
