<?xml version="1.0" encoding="UTF-8" standalone="no"?>
<!-- Created with Inkscape (http://www.inkscape.org/) -->

<svg
   width="200"
   height="200"
   viewBox="0 0 52.916665 52.916666"
   version="1.1"
   id="svg269"
   inkscape:version="1.2.2 (732a01da63, 2022-12-09, custom)"
   sodipodi:docname="do-server-warn-symbolic.svg"
   xmlns:inkscape="http://www.inkscape.org/namespaces/inkscape"
   xmlns:sodipodi="http://sodipodi.sourceforge.net/DTD/sodipodi-0.dtd"
   xmlns="http://www.w3.org/2000/svg"
   xmlns:svg="http://www.w3.org/2000/svg">
  <sodipodi:namedview
     id="namedview271"
     pagecolor="#ffffff"
     bordercolor="#000000"
     borderopacity="0.25"
     inkscape:showpageshadow="2"
     inkscape:pageopacity="0.0"
     inkscape:pagecheckerboard="0"
     inkscape:deskcolor="#d1d1d1"
     inkscape:document-units="mm"
     showgrid="false"
     inkscape:zoom="0.13228492"
     inkscape:cx="238.12238"
     inkscape:cy="105.83217"
     inkscape:window-width="1920"
     inkscape:window-height="1011"
     inkscape:window-x="0"
     inkscape:window-y="37"
     inkscape:window-maximized="1"
     inkscape:current-layer="layer1" />
  <defs
     id="defs266">
    <rect
       x="229.76099"
       y="76.74896"
       width="81.491973"
       height="130.90108"
       id="rect4761" />
  </defs>
  <g
     inkscape:label="Layer 1"
     inkscape:groupmode="layer"
     id="layer1">
    <path
       id="rect442"
       style="stroke-width:5.14459;stroke-linecap:round;stroke-miterlimit:6.7;paint-order:markers fill stroke"
       d="m 4.3610058,2.0848628 c -1.167628,0 -2.1076378,0.9136516 -2.1076378,2.0485388 V 15.575267 c 0,1.134887 0.9400098,2.048539 2.1076378,2.048539 H 48.781944 c 1.167628,0 2.107638,-0.913652 2.107638,-2.048539 V 4.1334016 c 0,-1.1348872 -0.94001,-2.0485388 -2.107638,-2.0485388 z M 36.666554,6.7037916 a 3.0109112,2.9264838 0 0 1 3.010912,2.926484 3.0109112,2.9264838 0 0 1 -3.010912,2.9264834 3.0109112,2.9264838 0 0 1 -3.010911,-2.9264834 3.0109112,2.9264838 0 0 1 3.010911,-2.926484 z m 8.316467,0 a 3.0109112,2.9264838 0 0 1 3.010911,2.926484 3.0109112,2.9264838 0 0 1 -3.010911,2.9264834 3.0109112,2.9264838 0 0 1 -3.010911,-2.9264834 3.0109112,2.9264838 0 0 1 3.010911,-2.926484 z M 7.3407494,7.5360106 H 27.282157 c 0.87997,0 1.588372,0.6373348 1.588372,1.4289471 v 1.0568493 c 0,0.791612 -0.708402,1.428947 -1.588372,1.428947 H 7.3407494 c -0.8799715,0 -1.5883733,-0.637335 -1.5883733,-1.428947 V 8.9649577 c 0,-0.7916123 0.7084018,-1.4289471 1.5883733,-1.4289471 z" />
    <path
       id="rect442-3"
       style="stroke-width:5.1446;stroke-linecap:round;stroke-miterlimit:6.7;paint-order:markers fill stroke"
       d="M 4.2478027 19.118213 C 3.0801789 19.118213 2.1404378 20.031778 2.1404378 21.166667 L 2.1404378 32.608346 C 2.1404378 33.743232 3.0801789 34.656799 4.2478027 34.656799 L 22.972758 34.656799 L 26.86451 28.484049 L 7.2274658 28.484049 C 6.3474981 28.484049 5.6394491 27.846808 5.6394491 27.055196 L 5.6394491 25.997896 C 5.6394491 25.206283 6.3474981 24.569043 7.2274658 24.569043 L 27.168884 24.569043 C 27.890085 24.569043 28.495573 24.997314 28.690755 25.587585 L 32.769576 19.118213 L 4.2478027 19.118213 z M 42.34987 19.118213 L 45.286641 23.772192 A 3.0109112 2.9264946 0 0 1 47.880798 26.663489 A 3.0109112 2.9264946 0 0 1 47.712333 27.617436 L 50.776229 32.47347 L 50.776229 21.166667 C 50.776229 20.031778 49.836489 19.118213 48.668864 19.118213 L 42.34987 19.118213 z " />
    <path
       id="rect442-6-7"
       style="stroke-width:5.14459;stroke-linecap:round;stroke-miterlimit:6.7;paint-order:markers fill stroke"
       d="M 4.3609741 36.120793 C 3.1933476 36.120793 2.2536092 37.034364 2.2536092 38.169246 L 2.2536092 49.611442 C 2.2536092 50.746327 3.1933476 51.659896 4.3609741 51.659896 L 12.13776 51.659896 L 16.172139 45.486629 L 7.3406372 45.486629 C 6.460668 45.486629 5.7526204 44.849386 5.7526204 44.057776 L 5.7526204 43.000993 C 5.7526204 42.209382 6.460668 41.572139 7.3406372 41.572139 L 18.730123 41.572139 L 22.292179 36.120793 L 4.3609741 36.120793 z " />
    <g
       id="path295"
       inkscape:transform-center-x="0.017694376"
       inkscape:transform-center-y="-4.8759531"
       transform="matrix(1.2175016,0.01247202,-0.01181165,1.1530381,47.302356,17.553949)" />
    <g
       id="path2155"
       inkscape:transform-center-x="-0.0019192741"
       inkscape:transform-center-y="-5.4453857"
       transform="matrix(0.65868626,0.00719532,-0.00719532,0.65868626,-96.066259,44.952859)">
      <path
         style="color:#000000;fill:#000000;stroke-width:5.1906;stroke-linecap:round;stroke-linejoin:round;stroke-miterlimit:6.7;-inkscape-stroke:none;paint-order:markers fill stroke"
         d="m 85.361625,23.574379 c 39.813865,-62.270307 19.906935,-31.1351533 0,0 z"
         id="path2159"
         sodipodi:nodetypes="cc" />
    </g>
    <path
       id="path2161-6-9-1"
       style="color:#000000;fill:#000000;fill-opacity:1;stroke-width:0.648474;stroke-linecap:round;stroke-linejoin:round;stroke-miterlimit:6.7;-inkscape-stroke:none;paint-order:markers fill stroke"
       d="M 37.339323 19.268075 C 36.715134 19.267887 36.138335 19.576841 35.826237 20.078878 L 26.1922 35.583875 L 15.253333 53.418445 C 15.244733 53.432295 15.236014 53.444052 15.227494 53.457202 C 15.312954 53.445372 15.40741 53.438132 15.514299 53.438082 L 37.345007 53.517147 L 53.873714 53.514563 L 53.886633 44.254146 L 48.491614 35.579224 L 38.851375 20.077844 C 38.539122 19.576418 37.963038 19.267889 37.339323 19.268075 z M 15.227494 53.457202 C 14.25135 53.592391 14.623059 54.389736 15.227494 53.457202 z M 37.289197 28.382764 C 38.283212 28.382764 39.091686 28.633308 39.713855 29.134139 C 40.364434 29.634969 40.687713 30.255684 40.683822 30.996041 C 40.68302 31.148467 40.652692 31.507856 40.592871 32.074011 L 39.306645 41.774711 C 39.159031 42.841696 38.460265 43.37513 37.210649 43.37513 C 36.614242 43.37513 36.117971 43.233425 35.721851 42.95035 C 35.354139 42.66727 35.142987 42.275542 35.088814 41.774711 L 33.90439 32.074011 C 33.850293 31.551407 33.823779 31.192018 33.824809 30.996041 C 33.828815 30.233908 34.158684 29.613194 34.814412 29.134139 C 35.470257 28.633308 36.295182 28.382764 37.289197 28.382764 z M 37.191528 45.221012 A 2.9037774 2.9036667 0 0 1 40.095227 48.124711 A 2.9037774 2.9036667 0 0 1 37.191528 51.02841 A 2.9037774 2.9036667 0 0 1 34.28783 48.124711 A 2.9037774 2.9036667 0 0 1 37.191528 45.221012 z " />
    <g
       aria-label="!"
       transform="matrix(1.3312667,0,-0.00536486,1.0207153,-280.94647,-59.329248)"
       id="text4759"
       style="font-weight:bold;font-size:32px;font-family:FreeMono;-inkscape-font-specification:'FreeMono Bold';white-space:pre;shape-inside:url(#rect4761);fill:#ff0000;stroke-width:0.1;stroke-linecap:round;stroke-linejoin:round;stroke-miterlimit:6.7;paint-order:markers fill stroke" />
  </g>
</svg>
