<?xml version="1.0" encoding="UTF-8" standalone="no"?>
<svg
   viewBox="0 0 64 64"
   aria-labelledby="title"
   aria-describedby="desc"
   role="img"
   width="64"
   height="64"
   version="1.1"
   id="svg156"
   sodipodi:docname="do-server-ooo-new.svg"
   inkscape:version="1.2.2 (732a01da63, 2022-12-09, custom)"
   xmlns:inkscape="http://www.inkscape.org/namespaces/inkscape"
   xmlns:sodipodi="http://sodipodi.sourceforge.net/DTD/sodipodi-0.dtd"
   xmlns="http://www.w3.org/2000/svg"
   xmlns:svg="http://www.w3.org/2000/svg"
   xmlns:rdf="http://www.w3.org/1999/02/22-rdf-syntax-ns#"
   xmlns:cc="http://creativecommons.org/ns#"
   xmlns:dc="http://purl.org/dc/elements/1.1/">
  <defs
     id="defs160">
    <rect
       x="-43.942015"
       y="10.736164"
       width="31.750169"
       height="49.394235"
       id="rect15390" />
  </defs>
  <sodipodi:namedview
     id="namedview158"
     pagecolor="#ffffff"
     bordercolor="#000000"
     borderopacity="0.25"
     inkscape:showpageshadow="2"
     inkscape:pageopacity="0.0"
     inkscape:pagecheckerboard="0"
     inkscape:deskcolor="#d1d1d1"
     showgrid="false"
     inkscape:zoom="8.546875"
     inkscape:cx="31.005484"
     inkscape:cy="32.058501"
     inkscape:window-width="1920"
     inkscape:window-height="1011"
     inkscape:window-x="0"
     inkscape:window-y="37"
     inkscape:window-maximized="1"
     inkscape:current-layer="svg156" />
  <title
     id="title148">Remove Server</title>
  <desc
     id="desc150">A solid styled icon from Orion Icon Library.</desc>
  <path
     data-name="layer1"
     d="M37.3 28H30a2 2 0 0 1 0-4h16a2 2 0 0 1 2 2 19.8 19.8 0 0 1 6 1.6V20H2v12h29.7a20 20 0 0 1 5.6-4zM11 29a3 3 0 1 1 3-3 3 3 0 0 1-3 3zm15 17a19.8 19.8 0 0 1 2.7-10H2v12a2 2 0 0 0 2 2h22.4a20 20 0 0 1-.4-4zm-15-1a3 3 0 1 1 3-3 3 3 0 0 1-3 3zM54 4a2 2 0 0 0-2-2H4a2 2 0 0 0-2 2v12h52zm-43 9a3 3 0 1 1 3-3 3 3 0 0 1-3 3zm35-1H30a2 2 0 0 1 0-4h16a2 2 0 0 1 0 4z"
     fill="#202020"
     id="path154" />
  <path
     id="path14490"
     style="fill:#000000;stroke-width:98.5327;stroke-linecap:round;stroke-miterlimit:6.7;paint-order:markers fill stroke;fill-opacity:1"
     d="M 46.263672 28.21875 A 17.649036 17.858307 0 0 0 28.615234 46.076172 A 17.649036 17.858307 0 0 0 46.263672 63.935547 A 17.649036 17.858307 0 0 0 63.912109 46.076172 A 17.649036 17.858307 0 0 0 46.263672 28.21875 z M 42.253906 31.224609 L 50.003906 31.224609 L 50.003906 42.238281 L 48.90625 50.271484 L 43.353516 50.271484 L 42.253906 42.238281 L 42.253906 31.224609 z M 42.253906 53.076172 L 50.003906 53.076172 L 50.003906 59.919922 L 42.253906 59.919922 L 42.253906 53.076172 z " />
  <g
     aria-label="!"
     transform="matrix(1.3777854,0,0,1.2300072,96.618033,11.888609)"
     id="text15388"
     style="font-weight:bold;font-size:32px;-inkscape-font-specification:'sans-serif Bold';white-space:pre;shape-inside:url(#rect15390);fill:#ff0000;stroke-width:24;stroke-linecap:round;stroke-miterlimit:6.7;paint-order:markers fill stroke" />
  <metadata
     id="metadata16347">
    <rdf:RDF>
      <cc:Work
         rdf:about="">
        <dc:title>Remove Server</dc:title>
      </cc:Work>
    </rdf:RDF>
  </metadata>
</svg>
