<svg xmlns="http://www.w3.org/2000/svg" viewBox="0 0 64 64" aria-labelledby="title"
aria-describedby="desc" role="img" xmlns:xlink="http://www.w3.org/1999/xlink"
width="64" height="64">
  <title>Error Server</title>
  <desc>A solid styled icon from Orion Icon Library.</desc>
  <path data-name="layer2"
  d="M46 32L30 62h32zm-2 12a2 2 0 1 1 4 0v6a2 2 0 1 1-4 0zm2 14a2 2 0 0 1-2-2 2 2 0 0 1 .6-1.4 2.1 2.1 0 0 1 2.8 0 2 2 0 0 1 0 2.8 2 2 0 0 1-1.4.6z"
  fill="#202020"></path>
  <path data-name="layer1" d="M31.9 50l3.2-6H30a2 2 0 0 1 0-4h7.2l2.1-4H2v12a2 2 0 0 0 2 2h27.9zM11 45a3 3 0 1 1 3-3 3 3 0 0 1-3 3zM54 4a2 2 0 0 0-2-2H4a2 2 0 0 0-2 2v12h52zm-43 9a3 3 0 1 1 3-3 3 3 0 0 1-3 3zm35-1H30a2 2 0 0 1 0-4h16a2 2 0 0 1 0 4zm-3.5 18.1a4 4 0 0 1 7.1 0l1 1.9H54V20H2v12h39.5zM11 29a3 3 0 1 1 3-3 3 3 0 0 1-3 3zm17-3a2 2 0 0 1 2-2h16a2 2 0 0 1 0 4H30a2 2 0 0 1-2-2z"
  fill="#202020"></path>
</svg>