<?xml version="1.0" encoding="UTF-8" standalone="no"?>
<!-- Created with Inkscape (http://www.inkscape.org/) -->

<svg
   width="200"
   height="200"
   viewBox="0 0 52.916665 52.916666"
   version="1.1"
   id="svg11165"
   sodipodi:docname="droplet-server-offline.svg"
   inkscape:version="1.1.2 (0a00cf5339, 2022-02-04)"
   xmlns:inkscape="http://www.inkscape.org/namespaces/inkscape"
   xmlns:sodipodi="http://sodipodi.sourceforge.net/DTD/sodipodi-0.dtd"
   xmlns="http://www.w3.org/2000/svg"
   xmlns:svg="http://www.w3.org/2000/svg"
   xmlns:rdf="http://www.w3.org/1999/02/22-rdf-syntax-ns#"
   xmlns:cc="http://creativecommons.org/ns#"
   xmlns:dc="http://purl.org/dc/elements/1.1/">
  <sodipodi:namedview
     id="namedview11167"
     pagecolor="#ffffff"
     bordercolor="#000000"
     borderopacity="0.25"
     inkscape:showpageshadow="2"
     inkscape:pageopacity="0.0"
     inkscape:pagecheckerboard="true"
     inkscape:deskcolor="#d1d1d1"
     inkscape:document-units="mm"
     showgrid="false"
     inkscape:zoom="1.496633"
     inkscape:cx="-214.81552"
     inkscape:cy="48.107986"
     inkscape:window-width="1920"
     inkscape:window-height="1011"
     inkscape:window-x="0"
     inkscape:window-y="37"
     inkscape:window-maximized="1"
     inkscape:current-layer="layer1"
     inkscape:pageshadow="0" />
  <defs
     id="defs11162" />
  <g
     inkscape:label="Layer 1"
     inkscape:groupmode="layer"
     id="layer1">
    <path
       id="path13101"
       style="fill:#d4002d;stroke-width:0.52916667;stroke-linecap:round;stroke-miterlimit:6.7;stroke-opacity:1;paint-order:markers fill stroke;stroke:none;stroke-dasharray:none;fill-opacity:1"
       d="M 26.458333 3.9584147 A 22.5 22.5 0 0 0 3.9584147 26.458333 A 22.5 22.5 0 0 0 26.458333 48.958252 A 22.5 22.5 0 0 0 48.958252 26.458333 A 22.5 22.5 0 0 0 26.458333 3.9584147 z M 36.693368 13.953153 A 2.5202899 2.5202899 0 0 1 38.194568 14.671456 A 2.5202899 2.5202899 0 0 1 38.202836 18.234546 L 30.01884 26.453682 L 38.219373 34.655249 A 2.5202899 2.5202899 0 0 1 38.220923 38.219889 A 2.5202899 2.5202899 0 0 1 34.656283 38.218339 L 26.462984 30.025041 L 18.286739 38.236426 A 2.5202899 2.5202899 0 0 1 14.722099 38.243144 A 2.5202899 2.5202899 0 0 1 14.714864 34.67902 L 22.898861 26.460917 L 14.697294 18.259351 A 2.5202899 2.5202899 0 0 1 14.698328 14.69471 A 2.5202899 2.5202899 0 0 1 18.262968 14.696261 L 26.455233 22.889559 L 34.631478 14.679724 A 2.5202899 2.5202899 0 0 1 36.693368 13.953153 z " />
  </g>
  <metadata
     id="metadata806">
    <rdf:RDF>
      <cc:License
         rdf:about="http://creativecommons.org/licenses/by-sa/4.0/">
        <cc:permits
           rdf:resource="http://creativecommons.org/ns#Reproduction" />
        <cc:permits
           rdf:resource="http://creativecommons.org/ns#Distribution" />
        <cc:requires
           rdf:resource="http://creativecommons.org/ns#Notice" />
        <cc:requires
           rdf:resource="http://creativecommons.org/ns#Attribution" />
        <cc:permits
           rdf:resource="http://creativecommons.org/ns#DerivativeWorks" />
        <cc:requires
           rdf:resource="http://creativecommons.org/ns#ShareAlike" />
      </cc:License>
      <cc:Work
         rdf:about="">
        <cc:license
           rdf:resource="http://creativecommons.org/licenses/by-sa/4.0/" />
        <dc:creator>
          <cc:Agent>
            <dc:title>Samuel Lane</dc:title>
          </cc:Agent>
        </dc:creator>
      </cc:Work>
    </rdf:RDF>
  </metadata>
</svg>
