<?xml version="1.0" encoding="UTF-8" standalone="no"?>
<!-- Created with Inkscape (http://www.inkscape.org/) -->

<svg
   width="200"
   height="200"
   viewBox="0 0 52.916665 52.916666"
   version="1.1"
   id="svg269"
   inkscape:version="1.1.2 (0a00cf5339, 2022-02-04)"
   sodipodi:docname="droplet-status-warn-symbolic.svg"
   xmlns:inkscape="http://www.inkscape.org/namespaces/inkscape"
   xmlns:sodipodi="http://sodipodi.sourceforge.net/DTD/sodipodi-0.dtd"
   xmlns="http://www.w3.org/2000/svg"
   xmlns:svg="http://www.w3.org/2000/svg"
   xmlns:rdf="http://www.w3.org/1999/02/22-rdf-syntax-ns#"
   xmlns:cc="http://creativecommons.org/ns#"
   xmlns:dc="http://purl.org/dc/elements/1.1/">
  <sodipodi:namedview
     id="namedview271"
     pagecolor="#ffffff"
     bordercolor="#000000"
     borderopacity="0.25"
     inkscape:showpageshadow="2"
     inkscape:pageopacity="0.0"
     inkscape:pagecheckerboard="0"
     inkscape:deskcolor="#d1d1d1"
     inkscape:document-units="mm"
     showgrid="false"
     inkscape:zoom="0.13228492"
     inkscape:cx="-2211.1364"
     inkscape:cy="128.51049"
     inkscape:window-width="1920"
     inkscape:window-height="1011"
     inkscape:window-x="0"
     inkscape:window-y="37"
     inkscape:window-maximized="1"
     inkscape:current-layer="layer1"
     inkscape:pageshadow="0" />
  <defs
     id="defs266">
    <rect
       x="229.76099"
       y="76.74896"
       width="81.491973"
       height="130.90108"
       id="rect4761" />
  </defs>
  <g
     inkscape:label="Layer 1"
     inkscape:groupmode="layer"
     id="layer1">
    <path
       id="rect442"
       style="stroke-width:5.14459;stroke-linecap:round;stroke-miterlimit:6.7;paint-order:markers fill stroke"
       d="m 4.3609741,2.0846273 c -1.1676268,0 -2.1073649,0.9140845 -2.1073649,2.0489705 V 15.575277 c 0,1.134886 0.9397381,2.048453 2.1073649,2.048453 H 32.396472 c 0.611856,-2.109839 2.870773,-3.535295 4.820895,-3.536735 1.951074,1.71e-4 4.211324,1.425867 4.823478,3.536735 h 6.74119 c 1.167627,0 2.107365,-0.913567 2.107365,-2.048453 V 4.1335978 c 0,-1.134886 -0.939738,-2.0489705 -2.107365,-2.0489705 z M 36.666496,6.7039836 c 1.662968,-1.47e-4 3.011158,1.3100985 3.011185,2.9264363 -2.7e-5,1.6163381 -1.348217,2.9265831 -3.011185,2.9264361 -1.662767,-1.3e-4 -3.010642,-1.310294 -3.010669,-2.9264361 2.7e-5,-1.6161419 1.347902,-2.9263063 3.010669,-2.9264363 z m 8.316288,0 c 1.662969,-1.475e-4 3.011159,1.3100982 3.011186,2.9264363 -2.7e-5,1.6163381 -1.348218,2.9265841 -3.011186,2.9264361 -1.662767,-1.3e-4 -3.010642,-1.310294 -3.010669,-2.9264361 2.7e-5,-1.6161419 1.347902,-2.9263063 3.010669,-2.9264363 z M 7.3406372,7.5359741 H 27.282056 c 0.879969,0 1.588533,0.6372419 1.588533,1.4288534 v 1.0567835 c 0,0.791611 -0.708564,1.42937 -1.588533,1.42937 H 7.3406372 c -0.8799706,0 -1.5880168,-0.637759 -1.5880168,-1.42937 V 8.9648275 c 0,-0.7916115 0.7080462,-1.4288534 1.5880168,-1.4288534 z"
       sodipodi:nodetypes="sssscccsssssccccccccccsssssssss" />
    <path
       id="rect442-3"
       style="stroke-width:5.1446;stroke-linecap:round;stroke-miterlimit:6.7;paint-order:markers fill stroke"
       d="M 4.2478027 19.118213 C 3.0801825 19.118213 2.1404378 20.031781 2.1404378 21.166667 L 2.1404378 32.608346 C 2.1404378 33.743226 3.0801825 34.656799 4.2478027 34.656799 L 21.564575 34.656799 L 25.421704 28.484049 L 7.2274658 28.484049 C 6.3475008 28.484049 5.6394491 27.846805 5.6394491 27.055196 L 5.6394491 25.997896 C 5.6394491 25.206286 6.3475008 24.569043 7.2274658 24.569043 L 27.168884 24.569043 C 27.39207 24.569043 27.603642 24.61102 27.795719 24.685315 L 31.275094 19.118213 L 4.2478027 19.118213 z M 42.898157 19.118213 L 45.928463 23.933423 C 47.078377 24.353083 47.87774 25.426066 47.880798 26.663489 C 47.880349 26.775735 47.870662 26.887242 47.857027 26.998352 L 50.776229 31.636829 L 50.776229 21.166667 C 50.776229 20.031781 49.836486 19.118213 48.668864 19.118213 L 42.898157 19.118213 z " />
    <path
       id="rect442-6-7"
       style="stroke-width:5.14459;stroke-linecap:round;stroke-miterlimit:6.7;paint-order:markers fill stroke"
       d="M 4.3609741 36.120793 C 3.19335 36.120793 2.2536092 37.034368 2.2536092 38.169246 L 2.2536092 49.611442 C 2.2536092 50.746325 3.19335 51.659896 4.3609741 51.659896 L 10.777637 51.659896 L 14.635282 45.486629 L 7.3406372 45.486629 C 6.4606698 45.486629 5.7526204 44.849384 5.7526204 44.057776 L 5.7526204 43.000993 C 5.7526204 42.209384 6.4606698 41.572139 7.3406372 41.572139 L 17.081645 41.572139 L 20.488672 36.120793 L 4.3609741 36.120793 z " />
    <g
       id="path295"
       inkscape:transform-center-x="0.017694376"
       inkscape:transform-center-y="-4.8759531"
       transform="matrix(1.2175016,0.01247202,-0.01181165,1.1530381,47.302356,17.553949)" />
    <g
       id="path2155"
       inkscape:transform-center-x="-0.0019192741"
       inkscape:transform-center-y="-5.4453857"
       transform="matrix(0.65868626,0.00719532,-0.00719532,0.65868626,-96.066259,44.952859)">
      <path
         style="color:#000000;fill:#000000;stroke-width:5.1906;stroke-linecap:round;stroke-linejoin:round;stroke-miterlimit:6.7;-inkscape-stroke:none;paint-order:markers fill stroke"
         d="m 85.361625,23.574379 c 39.813865,-62.270307 19.906935,-31.1351533 0,0 z"
         id="path2159"
         sodipodi:nodetypes="cc" />
    </g>
    <path
       id="path2161-6-9-1"
       style="color:#000000;fill:#000000;fill-opacity:1;stroke-width:0.668808;stroke-linecap:round;stroke-linejoin:round;stroke-miterlimit:6.7;-inkscape-stroke:none;paint-order:markers fill stroke"
       d="m 36.984481,18.048471 c -0.641364,-1.94e-4 -1.234034,0.319639 -1.55472,0.839354 l -9.899125,16.05097 -11.239859,18.462574 c -0.0088,0.01434 -0.0178,0.02651 -0.02655,0.04012 0.08781,-0.01225 0.184866,-0.01974 0.294697,-0.01979 l 22.431398,0.08185 16.983507,-0.0027 0.01328,-9.586502 -5.543467,-8.980389 -9.905498,-16.047227 c -0.32085,-0.519082 -0.912786,-0.838475 -1.553663,-0.838283 z m -22.720254,35.39302 c -1.003003,0.13995 -0.621067,0.965371 0,0 z M 36.932976,25.896613 c 1.021366,0 1.651736,0.688921 2.291024,1.207387 0.668481,0.518466 1.201005,2.318984 1.197007,3.085411 -8.24e-4,0.157793 -0.03199,0.529837 -0.09345,1.115928 L 39.00594,41.347628 c -0.151676,1.104556 -0.869669,1.656774 -2.153669,1.656774 -0.612818,0 -1.122744,-0.146695 -1.529764,-0.439738 -0.37783,-0.293048 -0.594792,-0.69857 -0.650455,-1.217036 L 33.455033,31.305339 c -0.05559,-0.541006 -0.08283,-0.91305 -0.08177,-1.115928 0.0041,-0.78897 0.542966,-2.589487 1.216737,-3.085411 0.673891,-0.518466 1.321611,-1.207387 2.342976,-1.207387 z m -0.100358,19.547836 c 1.647821,4.5e-5 2.983615,1.345845 2.983597,3.005946 1.9e-5,1.660102 -1.335776,3.005902 -2.983597,3.005947 -1.647821,-4.6e-5 -2.983614,-1.345846 -2.983595,-3.005947 -1.8e-5,-1.6601 1.335775,-3.0059 2.983595,-3.005946 z"
       sodipodi:nodetypes="cccccccccccccccscsccscccccsccccc" />
    <g
       aria-label="!"
       transform="matrix(1.3312667,0,-0.00536486,1.0207153,-280.94647,-59.329248)"
       id="text4759"
       style="font-weight:bold;font-size:32px;font-family:FreeMono;-inkscape-font-specification:'FreeMono Bold';white-space:pre;shape-inside:url(#rect4761);fill:#ff0000;stroke-width:0.1;stroke-linecap:round;stroke-linejoin:round;stroke-miterlimit:6.7;paint-order:markers fill stroke" />
    <circle
       id="path23324"
       style="fill:#ff0000;stroke:#000000;stroke-width:0.264583"
       cx="37.342571"
       cy="15.26592"
       r="0.0016650727" />
  </g>
  <metadata
     id="metadata1121">
    <rdf:RDF>
      <cc:License
         rdf:about="http://creativecommons.org/licenses/by-sa/4.0/">
        <cc:permits
           rdf:resource="http://creativecommons.org/ns#Reproduction" />
        <cc:permits
           rdf:resource="http://creativecommons.org/ns#Distribution" />
        <cc:requires
           rdf:resource="http://creativecommons.org/ns#Notice" />
        <cc:requires
           rdf:resource="http://creativecommons.org/ns#Attribution" />
        <cc:permits
           rdf:resource="http://creativecommons.org/ns#DerivativeWorks" />
        <cc:requires
           rdf:resource="http://creativecommons.org/ns#ShareAlike" />
      </cc:License>
      <cc:Work
         rdf:about="">
        <cc:license
           rdf:resource="http://creativecommons.org/licenses/by-sa/4.0/" />
        <dc:creator>
          <cc:Agent>
            <dc:title>Samuel Lane</dc:title>
          </cc:Agent>
        </dc:creator>
      </cc:Work>
    </rdf:RDF>
  </metadata>
</svg>
