<?xml version="1.0" encoding="UTF-8" standalone="no"?>
<!-- Created with Inkscape (http://www.inkscape.org/) -->

<svg
   width="200"
   height="200"
   viewBox="0 0 52.916665 52.916666"
   version="1.1"
   id="svg269"
   inkscape:version="1.2.2 (732a01da63, 2022-12-09, custom)"
   sodipodi:docname="do-server-error-symbolic.svg"
   xmlns:inkscape="http://www.inkscape.org/namespaces/inkscape"
   xmlns:sodipodi="http://sodipodi.sourceforge.net/DTD/sodipodi-0.dtd"
   xmlns="http://www.w3.org/2000/svg"
   xmlns:svg="http://www.w3.org/2000/svg">
  <sodipodi:namedview
     id="namedview271"
     pagecolor="#ffffff"
     bordercolor="#000000"
     borderopacity="0.25"
     inkscape:showpageshadow="2"
     inkscape:pageopacity="0.0"
     inkscape:pagecheckerboard="0"
     inkscape:deskcolor="#d1d1d1"
     inkscape:document-units="mm"
     showgrid="false"
     inkscape:zoom="0.093539564"
     inkscape:cx="128.28796"
     inkscape:cy="144.32396"
     inkscape:window-width="1400"
     inkscape:window-height="750"
     inkscape:window-x="50"
     inkscape:window-y="123"
     inkscape:window-maximized="0"
     inkscape:current-layer="layer1" />
  <defs
     id="defs266" />
  <g
     inkscape:label="Layer 1"
     inkscape:groupmode="layer"
     id="layer1">
    <path
       id="rect442"
       style="stroke-width:5.14459;stroke-linecap:round;stroke-miterlimit:6.7;paint-order:markers fill stroke"
       d="M 4.3609741 2.0846273 C 3.1933473 2.0846273 2.2536092 2.9987118 2.2536092 4.1335978 L 2.2536092 15.575277 C 2.2536092 16.710163 3.1933473 17.62373 4.3609741 17.62373 L 22.775354 17.62373 A 22.154778 22.154778 0 0 1 35.864994 13.331486 A 22.154778 22.154778 0 0 1 48.957218 17.615462 C 50.042021 17.529226 50.8894 16.652639 50.8894 15.575277 L 50.8894 4.1335978 C 50.8894 2.9987118 49.949662 2.0846273 48.782035 2.0846273 L 4.3609741 2.0846273 z M 36.666496 6.7039836 A 3.0109112 2.9264838 0 0 1 39.677681 9.6304199 A 3.0109112 2.9264838 0 0 1 36.666496 12.556856 A 3.0109112 2.9264838 0 0 1 33.655827 9.6304199 A 3.0109112 2.9264838 0 0 1 36.666496 6.7039836 z M 44.982784 6.7039836 A 3.0109112 2.9264838 0 0 1 47.99397 9.6304199 A 3.0109112 2.9264838 0 0 1 44.982784 12.556856 A 3.0109112 2.9264838 0 0 1 41.972115 9.6304199 A 3.0109112 2.9264838 0 0 1 44.982784 6.7039836 z M 7.3406372 7.5359741 L 27.282056 7.5359741 C 28.162025 7.5359741 28.870589 8.173216 28.870589 8.9648275 L 28.870589 10.021611 C 28.870589 10.813222 28.162025 11.450981 27.282056 11.450981 L 7.3406372 11.450981 C 6.4606666 11.450981 5.7526204 10.813222 5.7526204 10.021611 L 5.7526204 8.9648275 C 5.7526204 8.173216 6.4606666 7.5359741 7.3406372 7.5359741 z " />
    <path
       id="rect442-3"
       style="stroke-width:5.1446;stroke-linecap:round;stroke-miterlimit:6.7;paint-order:markers fill stroke"
       d="M 4.2478027 19.118213 C 3.0801777 19.118213 2.1404378 20.031777 2.1404378 21.166667 L 2.1404378 32.608346 C 2.1404378 33.743234 3.0801777 34.656799 4.2478027 34.656799 L 13.696322 34.656799 A 22.154778 22.154778 0 0 1 14.918469 28.484049 L 7.2274658 28.484049 C 6.3474972 28.484049 5.6394491 27.846809 5.6394491 27.055196 L 5.6394491 25.997896 C 5.6394491 25.206282 6.3474972 24.569043 7.2274658 24.569043 L 16.728178 24.569043 A 22.154778 22.154778 0 0 1 21.27157 19.118213 L 4.2478027 19.118213 z " />
    <path
       id="rect442-6-7"
       style="stroke-width:5.14459;stroke-linecap:round;stroke-miterlimit:6.7;paint-order:markers fill stroke"
       d="M 4.3609741 36.120793 C 3.1933476 36.120793 2.2536092 37.034364 2.2536092 38.169246 L 2.2536092 49.611442 C 2.2536092 50.746327 3.1933476 51.659896 4.3609741 51.659896 L 20.908801 51.659896 A 22.154778 22.154778 0 0 1 16.238285 45.486629 L 7.3406372 45.486629 C 6.460668 45.486629 5.7526204 44.849386 5.7526204 44.057776 L 5.7526204 43.000993 C 5.7526204 42.209382 6.460668 41.572139 7.3406372 41.572139 L 14.699878 41.572139 A 22.154778 22.154778 0 0 1 13.842049 36.120793 L 4.3609741 36.120793 z " />
    <g
       id="path295"
       inkscape:transform-center-x="0.017694376"
       inkscape:transform-center-y="-4.8759531"
       transform="matrix(1.2175016,0.01247202,-0.01181165,1.1530381,47.302356,17.553949)" />
    <g
       id="path1950">
      <path
         style="color:#000000;fill:#000000;stroke-width:5.10294;stroke-linecap:round;stroke-linejoin:round;stroke-miterlimit:6.7;-inkscape-stroke:none;paint-order:markers fill stroke"
         d="m 71.897604,23.493344 -0.05306,19.305671"
         id="path1981" />
    </g>
    <g
       id="path1950-5"
       transform="matrix(1.0673547,0,0,1.0673547,-39.200837,0.44252065)">
      <path
         style="color:#000000;fill:#000000;stroke-width:5.10294;stroke-linecap:round;stroke-linejoin:round;stroke-miterlimit:6.7;-inkscape-stroke:none;paint-order:markers fill stroke"
         d="M 81.52391,33.17271 62.218238,33.11965"
         id="path1987" />
    </g>
    <path
       id="path381-6-7"
       style="fill:#000000;fill-opacity:1;stroke-width:4.96444;stroke-linecap:round;stroke-linejoin:round;stroke-miterlimit:6.7;paint-order:markers fill stroke"
       d="M 35.226501,17.282 A 17.650575,17.650578 0 0 0 17.576,34.932499 17.650575,17.650578 0 0 0 35.226501,52.583597 17.650575,17.650578 0 0 0 52.877,34.932499 17.650575,17.650578 0 0 0 35.226501,17.282 Z m -8.408679,5.958572 a 3.131685,3.131685 0 0 1 2.435842,0.915743 l 6.146361,6.180236 6.18023,-6.146363 a 3.131685,3.131685 0 0 1 4.429559,0.01186 3.131685,3.131685 0 0 1 -0.01186,4.429563 l -6.180229,6.146953 6.146358,6.180228 a 3.131685,3.131685 0 0 1 -0.01186,4.428969 3.131685,3.131685 0 0 1 -4.42956,-0.01185 l -6.146361,-6.180228 -6.180229,6.146355 a 3.131685,3.131685 0 0 1 -4.42778,-0.01309 3.131685,3.131685 0 0 1 0.0099,-4.427779 l 6.180194,-6.146957 -6.146361,-6.180228 a 3.131685,3.131685 0 0 1 0.01186,-4.429561 3.131685,3.131685 0 0 1 1.993719,-0.903863 z" />
  </g>
</svg>
