<?xml version="1.0" encoding="UTF-8" standalone="no"?>
<!-- Created with Inkscape (http://www.inkscape.org/) -->

<svg
   width="200"
   height="200"
   viewBox="0 0 52.916665 52.916666"
   version="1.1"
   id="svg6245"
   sodipodi:docname="reboot.svg"
   inkscape:version="1.2.2 (732a01da63, 2022-12-09, custom)"
   xmlns:inkscape="http://www.inkscape.org/namespaces/inkscape"
   xmlns:sodipodi="http://sodipodi.sourceforge.net/DTD/sodipodi-0.dtd"
   xmlns="http://www.w3.org/2000/svg"
   xmlns:svg="http://www.w3.org/2000/svg">
  <sodipodi:namedview
     id="namedview6247"
     pagecolor="#ffffff"
     bordercolor="#000000"
     borderopacity="0.25"
     inkscape:showpageshadow="2"
     inkscape:pageopacity="0.0"
     inkscape:pagecheckerboard="true"
     inkscape:deskcolor="#d1d1d1"
     inkscape:document-units="px"
     showgrid="false"
     inkscape:zoom="5.66"
     inkscape:cx="116.07774"
     inkscape:cy="93.816254"
     inkscape:window-width="1920"
     inkscape:window-height="1013"
     inkscape:window-x="0"
     inkscape:window-y="37"
     inkscape:window-maximized="1"
     inkscape:current-layer="layer1"
     showguides="true" />
  <defs
     id="defs6242">
    <inkscape:perspective
       sodipodi:type="inkscape:persp3d"
       inkscape:vp_x="0 : 26.458333 : 1"
       inkscape:vp_y="0 : 1000 : 0"
       inkscape:vp_z="52.916665 : 26.458333 : 1"
       inkscape:persp3d-origin="26.458333 : 17.638889 : 1"
       id="perspective10122" />
  </defs>
  <g
     inkscape:label="Layer 1"
     inkscape:groupmode="layer"
     id="layer1">
    <path
       id="path23550"
       style="fill:#020202;fill-opacity:1;stroke:#000000;stroke-width:0.3175;stroke-linecap:round;stroke-linejoin:miter;stroke-miterlimit:2;stroke-dasharray:none;stroke-opacity:1;paint-order:normal"
       inkscape:transform-center-y="2.2470068"
       d="m 50.609313,35.706863 -5.151107,0.03152 c 0,0 -10.185747,7.337175 -18.653124,7.628474 C 18.337701,43.658161 8.3550451,35.800911 8.3550451,35.800911 L 2.194698,35.831921 2.365747,50.679593 H 50.723001 Z M 4.2757079,43.122948 H 15.098303 v 4.85345 H 4.2757079 Z"
       sodipodi:nodetypes="ccscccccccccc" />
    <path
       id="path31937"
       style="fill:#020202;fill-opacity:1;stroke:#000000;stroke-width:0;stroke-linecap:round;stroke-linejoin:round;stroke-miterlimit:0;stroke-dasharray:none"
       d="M 15.581372,1.747838 8.8363229,7.7150227 2.0912671,13.682203 8.1722214,15.717251 C 7.5348125,18.397804 7.4756857,21.259919 8.1093082,24.130923 10.354018,34.30157 20.418797,40.726822 30.589406,38.481945 40.760139,36.237241 47.185363,26.172485 44.940512,16.001846 43.827868,10.960559 40.793396,6.8402895 36.777605,4.2391524 l -2.829811,3.9887489 c 2.873401,1.9784267 5.014277,5.1020667 5.844479,8.8635127 1.66312,7.535213 -2.563339,14.776561 -10.098564,16.439661 -7.535221,1.663116 -14.991977,-3.097188 -16.655089,-10.63241 -0.418652,-1.896772 -0.428848,-3.788246 -0.09155,-5.5838 l 6.224651,2.083173 -1.79521,-8.825097 z" />
    <path
       id="path31937-3"
       style="fill:none;fill-opacity:1;stroke:#000000;stroke-width:0.02645833;stroke-linecap:round;stroke-linejoin:round;stroke-miterlimit:0;stroke-dasharray:none;stroke-opacity:0"
       d="M 107.14618,4.9959761 A 16.873793,16.873793 0 0 1 90.272384,21.869768 16.873793,16.873793 0 0 1 73.39859,4.9959761 16.873793,16.873793 0 0 1 90.272384,-11.877817 16.873793,16.873793 0 0 1 107.14618,4.9959761 Z" />
    <ellipse
       style="fill:none;fill-opacity:1;stroke:#000000;stroke-width:3.09562493;stroke-linecap:round;stroke-linejoin:round;stroke-miterlimit:0;stroke-dasharray:none;stroke-opacity:0;paint-order:normal"
       id="path37538"
       cx="-36.870178"
       cy="-13.404131"
       rx="11.134874"
       ry="7.3202963" />
    <ellipse
       style="fill:none;fill-opacity:1;stroke:#000000;stroke-width:3.09562;stroke-linecap:round;stroke-linejoin:round;stroke-miterlimit:0;stroke-dasharray:none;stroke-opacity:0;paint-order:normal"
       id="path37558"
       cx="-44.181705"
       cy="-15.385508"
       rx="11.297413"
       ry="7.290411" />
    <ellipse
       style="fill:none;fill-opacity:1;stroke:#000000;stroke-width:3.09562;stroke-linecap:round;stroke-linejoin:round;stroke-miterlimit:0;stroke-dasharray:none;stroke-opacity:0;paint-order:normal"
       id="path37560"
       cx="-33.239952"
       cy="-16.154898"
       rx="4.2381687"
       ry="2.9785903" />
    <g
       id="path42853">
      <path
         style="color:#000000;fill:#000000;stroke-width:5.26794;stroke-linecap:round;stroke-linejoin:round;stroke-miterlimit:0;-inkscape-stroke:none"
         d="M 26.36915,23.013505 26.547516,2.8790875 Z"
         id="path42869" />
      <path
         style="color:#000000;fill:#000000;fill-opacity:0.997406;stroke-linecap:round;stroke-linejoin:round;stroke-miterlimit:0;-inkscape-stroke:none"
         d="m 26.570312,0.28125 a 2.6342334,2.6342334 0 0 0 -2.65625,2.5742188 L 23.734375,22.990234 a 2.6348699,2.6348699 0 0 0 5.269531,0.04687 L 29.181641,2.9023438 A 2.6342334,2.6342334 0 0 0 26.570312,0.28125 Z"
         id="path42871" />
    </g>
  </g>
</svg>
